<svg xmlns="http://www.w3.org/2000/svg" xmlns:xlink="http://www.w3.org/1999/xlink" width="48.87" height="52.371" viewBox="0 0 48.87 52.371">
  <defs>
    <clipPath id="clip-path">
      <path id="Path_924" data-name="Path 924" d="M0,0H48.87V52.371H0Z" fill="#fff"/>
    </clipPath>
  </defs>
  <g id="Mask_Group_3" data-name="Mask Group 3" clip-path="url(#clip-path)">
    <path id="Path_923" data-name="Path 923" d="M.517,45.445c-.827-.853.827-1.427.827-1.427-.56-1.013,1.12-1,1.12-1-1.16-1.107,1.827-.96,1.827-.96.32-.933.973-.573.973-.573.293-1.053,1.08-.467,1.08-.467,1.147-1.32,1.507-3.16,1.693-5.293s-.973-4.76-1.093-6.347a5.448,5.448,0,0,1,.787-3.227,1.843,1.843,0,0,0,.107-1.773,10.093,10.093,0,0,0-.573-1.56c-1.453,1.693-2.093-.307-2.093-.307C3.7,22.978,3.824,21.7,3.824,21.7c-1.293.173-.8-1.053-.8-1.053-1.627-.36-.64-1.507-.64-1.507-.96-.907.053-1.387.053-1.387-.507-.547.413-.693.413-.693C1.757,15.671,3.9,15.9,3.9,15.9c-.453-1.493,1.04-.973,1.04-.973.16-1.92,1.68-.667,1.68-.667,1.04-2.04,2.44-.067,2.44-.067.867-.907,1.293.733,1.293.733,1.093-.107,1.107,1.307,1.107,1.307,2,.653.467,2.24.467,2.24.88.68-.293,1.293-.293,1.293,1.067,1.387-.893,1.507-.893,1.507.213,1.027-1.013.573-1.013.573.533,1.147-.933,1.013-.933,1.013l.92,1.053c.427-1.12,1.253-.547,1.253-.547.107-1.347,1.56-.707,1.56-.707-.04-1.227,1.267-.88,1.267-.88.667-1.2,2.147-.36,2.147-.36.813-.733,1.347.467,1.347.467,1.253-.587,1.16,1.12,1.16,1.12a2.632,2.632,0,0,0,1.12.067c-.853-.493.08-.973.08-.973-.747-.907.427-.92.427-.92-.88-1.467,1.053-2.2,1.053-2.2-.813-.653.92-1.907.92-1.907-.773-.627.773-1.347.773-1.347-1.36-.48.187-2.28.187-2.28a2.151,2.151,0,0,1,1.493-3.12,2.319,2.319,0,0,1,1.747-2.653c-.707-2.4,2-2.813,2-2.813A2.052,2.052,0,0,1,30.624,2.7c.453-1.747,2.6-1.213,2.6-1.213.187-2.013,2.76-1.133,2.76-1.133.653-1.053,2.413.6,2.413.6,1.973-1.08,2.465,1.907,2.465,1.907,2.105,0,1.388,2.667,1.388,2.667,1.027.653-.187,2.027-.187,2.027.693.747.787,1.907.96,2.093a40.649,40.649,0,0,0,4.307.707s1.147-.427,1.44.16a2,2,0,0,1-.16,1.48.979.979,0,0,1-.12.667c-.2.44-1.08.747-1.08.747-.267,2.067-1.693,1.64-2.92,1.587a32.055,32.055,0,0,0-3.628.224c1.474,1.77.25,2.247.25,2.247,1.191.284.765,1.191.765,1.191,1.458.6.924,1.316.924,1.316a1.606,1.606,0,0,1,1.44,1.849c1.049.125.622,1.156.622,1.156,1.973.284,1.262,2.222,1.262,2.222a.954.954,0,0,1,.249,1.724,1.173,1.173,0,0,1,.071,1.9c.587,1.138-.3,1.4-.3,1.4.676.658-.356,1.1-.356,1.1.427,2.667-2.275,2.453-2.275,2.453-.107,1.351-1.351.676-1.351.676-.338,1.778-2.258,1.351-2.258,1.351.3.427.089,1.565-.142,2.756a16.424,16.424,0,0,0-.258,2.418c2.827.276,1.778,1.84,1.778,1.84,2.6.631,1.431,2.453,1.431,2.453,1.262,1.3.071,1.565.071,1.565,1.031,1.867-.334,1.879-.334,1.879a1.143,1.143,0,0,1-.61,1.57c.258.258.516.839.38.911a.225.225,0,0,1-.052.016.468.468,0,0,1,.054.24c-.019.224-.1-.021-.341-.21-.1.006-.215.01-.326.013a.408.408,0,0,1,.021.154c-.017.2-.087.025-.271-.149-.193,0-.34,0-.34,0a.811.811,0,0,1,.2.688.465.465,0,0,1,.052.236c-.018.213-.1,0-.3-.179a2,2,0,0,1-.461-.186.263.263,0,0,1-.081.15.376.376,0,0,1,.036.094c.052.229-.072.132-.261.014-.03-.019-.059-.039-.087-.06-.25-.029-.6-.112-.6-.112a.2.2,0,0,1-.026.138.412.412,0,0,1,.1.184c.052.228-.072.132-.261.014a1.3,1.3,0,0,1-.151-.112c-.221-.014-.5-.091-.694-.116a5.633,5.633,0,0,1-1.2-.122c-.445-.144-.546-.744-.546-.744-1.227.373-1.333-1.12-1.333-1.12-1.413.72-1.307-1.28-1.307-1.28-1.227.4-.72-1.6-.72-1.6-1.307-.667-.027-2.107-.027-2.107-.853-.8.32-1.52.32-1.52-.347-1.2,1.493-1.813,1.493-1.813-.24-1.093,1.36-.987,1.36-.987a19.1,19.1,0,0,0-.72-4.427c-1.76.827-2.533-.293-2.533-.293a1.233,1.233,0,0,1-1.813-.08,2.075,2.075,0,0,1-2.907-.907,1.41,1.41,0,0,1-2.08-.053,1.351,1.351,0,0,1-1.976-1.04c-1.069.72-1.784-.533-1.784-.533-.933.107-1.227-1.2-1.227-1.2a7.214,7.214,0,0,0-4.773.613c-.72.533-.827,1.093-1.28,2.907s-2,2.747-3.573,3.84a4.336,4.336,0,0,0-1.827,2.56c2.04-.4,1.347.893,1.347.893,1.613.067.907,1.013.907,1.013,1.547.987,0,1.974,0,1.974.573.733-.507.933-.507.933.707,1.107-.893,1.347-.893,1.347.32.267-.053.373-.053.373s.467.227.653.333a.651.651,0,0,1,.333.587.241.241,0,0,1,0,.087.472.472,0,0,1,.056.244c-.016.188-.079.046-.238-.117a.881.881,0,0,1-.293-.042c.044.062.032.1-.012.125a.417.417,0,0,1,.025.168c-.017.2-.083.035-.256-.134a3.06,3.06,0,0,1-.4-.039.419.419,0,0,1,.026.174c-.014.165-.064.075-.184-.059a2.5,2.5,0,0,1-.453-.074c-.533.707-1.533.173-1.533.173-.213.613-1.053.547-1.053.547-.013.2.587.587.613.827a.113.113,0,0,1-.057.109.5.5,0,0,1,.069.272c-.019.22-.1-.012-.328-.2a2.344,2.344,0,0,1-.364.005c.029.048.025.079,0,.1a.4.4,0,0,1,.062.137c.052.229-.072.132-.261.014a1.347,1.347,0,0,1-.189-.145c-.184-.031-.361-.08-.361-.08.035.07-.022.122-.14.159a.4.4,0,0,1,.071.151c.052.228-.072.132-.261.014a1.248,1.248,0,0,1-.146-.108,7.838,7.838,0,0,1-2.085-.123c-.32-.133-.027-1.173-.027-1.173-2.16.253-1.413-.76-1.413-.76-1.613.307-1.32-.987-1.32-.987-1.813-.187-.667-1.08-.667-1.08-.64-.253,0-.667,0-.667-1.36-.467-.12-1.64-.12-1.64" transform="translate(0 0)" fill="#fff"/>
  </g>
</svg>
