<svg xmlns="http://www.w3.org/2000/svg" width="55.42" height="56.332" viewBox="0 0 55.42 56.332">
  <path id="Path_925" data-name="Path 925" d="M12.374,41.6a39.919,39.919,0,0,0-.282-4.633c-.094-.908.595-1.315.845-1.816s-.219-2.316.25-5.478A9.212,9.212,0,0,1,16.021,24.5c-4.643-.8-5.174-7.362-5.174-7.362,3.538,6.3,7.913,4.3,10.417,3.673s3.85-.25,7.513.063,7.313-.056,8.045-1.064,1.067-.447,1.349-1.182.961-.367,1.1-1.131A1.473,1.473,0,0,1,40.3,16.495c-1.753-.626-5.29-3.287-5.791-4.758s1.5-3.381,2.379-4.946a6.836,6.836,0,0,1,2.848-2.5A11.211,11.211,0,0,1,47.714.062c5.634-.595,8.232,3.318,8.7,3.537s.313,1.033.313,1.033a1.016,1.016,0,0,1,.626,1.158,24.935,24.935,0,0,0,4.007,1.816c.657.157,2.066.595,2.16,1.377a2.122,2.122,0,0,1-.532,1.471,18.43,18.43,0,0,1-.157,2.6c-.157.626-.939.626-.939.626-.657,1.346-4.6,2.41-5.728,2.629s-2.285.282-2.974,1.784-1.836,5.4-1.221,7.45A18.883,18.883,0,0,1,53.6,30.988c.438,3.255-1.064,5.259-2.441,7.356a14.022,14.022,0,0,0-2,5.321c-.282,1.346.5,3.224.5,3.568s1.1.962,1.886,1.307a2.3,2.3,0,0,1,1.213,2.074.484.484,0,0,1-.223.386c.044.182.057.373-.031.417s-.246-.122-.36-.3a1.681,1.681,0,0,1-.419-.03,1.83,1.83,0,0,1-.481.439c.04.174.048.35-.037.392s-.207-.083-.314-.234a1.788,1.788,0,0,1-1.3-.158c-.1.031-.2.057-.308.08.024.145.02.277-.052.313s-.216-.092-.325-.251a5.988,5.988,0,0,1-3.321-.517,13,13,0,0,1-.376-2.41c-.094-.47-.318-.155-.662-.656s.088-.761.119-1.074a24.366,24.366,0,0,0-.8-2.809c-1.033,0-3.662-.188-3.662-.188s.782,6.073.689,6.1.751.313,1.1.564a3.131,3.131,0,0,1,.521,1.371.659.659,0,0,1-.3.7c-.037.023-.079.046-.122.069.03.157.029.3-.047.342s-.187-.066-.289-.2l-.015.005a2.87,2.87,0,0,1-1.5-.157,2.177,2.177,0,0,1-.376.287c.053.194.076.412-.02.46s-.24-.116-.353-.293a1.53,1.53,0,0,1-1.254-.172c-.124.052-.241.095-.353.129.046.184.061.379-.029.424s-.26-.137-.374-.327a1.193,1.193,0,0,1-1.435-.633c-.282-.063-.845-.438-.814-.751a27.1,27.1,0,0,0,0-3.568c-.125-.564-.575-.265-.644-.907-.046-.423.331-.815.3-1.347s-.718-3.845-1.583-4.532A19.912,19.912,0,0,1,27.086,37.5a5.259,5.259,0,0,0-.313,3.443c.376.626,1.534.751,2.191,1.064.418.2.52.842.538,1.283a.71.71,0,0,1-.155.472c.074.161.117.329.044.387s-.22-.038-.356-.165a1.118,1.118,0,0,1-1.047-.055.827.827,0,0,1-.262.275c.094.181.166.4.081.464s-.336-.121-.489-.305a3.472,3.472,0,0,1-1.569-.2,1.214,1.214,0,0,1-.2.069c.047.128.063.245,0,.293-.081.065-.282-.08-.433-.242-.732,0-1.518-.4-1.542-.588a4.158,4.158,0,0,0-.157-1.409,8.513,8.513,0,0,1,0-2.41,23.02,23.02,0,0,0-.657-4.32c-.157-.376-2.309-.665-3.077-.339A9.956,9.956,0,0,0,17,36.95a8.755,8.755,0,0,0-1.625,2.02,13,13,0,0,0,.094,3.287c.125.47.97,1.5.908,2.254a.819.819,0,0,1-.1.347c.084.171.14.36.06.423s-.217-.036-.353-.161a.943.943,0,0,1-.42.08,1.427,1.427,0,0,1-.529.344c-.01.194-.054.394-.156.411s-.178-.151-.234-.335a1.828,1.828,0,0,1-1.022-.308,1.294,1.294,0,0,1-.61.326c-.089.174-.212.342-.312.315-.076-.02-.1-.166-.084-.329-.381-.1-.616-.416-.653-.361a.4.4,0,0,1-.259.111c-.089.182-.219.365-.323.337-.089-.024-.1-.219-.075-.414a.679.679,0,0,1-.063-.035c-.285-.2-.094-1,.063-1.5s.97-1.377,1.064-2.16" transform="translate(-10.832 3.325) rotate(-3)" fill="#fff"/>
</svg>
