<svg xmlns="http://www.w3.org/2000/svg" width="76.49" height="51.847" viewBox="0 0 76.49 51.847">
  <path id="Path_926" data-name="Path 926" d="M73.5,26.719c-1.147-.96-1.574-1.227-1.627-2.108s-1.04-.907-1.387-1.921-1.547-1.307-1.974-1.868S68.189,18,68.056,16.5s-1.04-.747-1.04-.747-.294-.587-.667-.32a18.948,18.948,0,0,0-1.494,3.308.528.528,0,0,1-.24-.373,9.213,9.213,0,0,0-.4,1.2A2.238,2.238,0,0,1,64,18.8a3.6,3.6,0,0,0-.4,1.361.425.425,0,0,0-.32-.294c-.027.907-1.707,2.374-3.521,3.842s-2.8,1.627-3.522,1.627a8.077,8.077,0,0,0-1.467.16,2.731,2.731,0,0,1,.72.32,4.072,4.072,0,0,0-2.188.694,1.311,1.311,0,0,1,.827,0,3.545,3.545,0,0,1-1.707.694,1.991,1.991,0,0,0,.72.187c-1.174.587-1.627.267-1.627.267a2.209,2.209,0,0,0,.533.454c-2.934,2.054-5.2,1.627-10.831.827a23.525,23.525,0,0,0-13.473,2.4C24.651,32.8,22.01,34.7,20.222,34.642a13.814,13.814,0,0,0-3.148.293c-1.227.133-2.455-.8-5.042-2.428a12.492,12.492,0,0,0-8.11-1.947A6.02,6.02,0,0,0,0,33.148a2.379,2.379,0,0,1,1.814-.56c-.56.4-.507.8-.507.8,1.548-.64,2.214.213,2.214.213a1.028,1.028,0,0,0-.747.187A3.616,3.616,0,0,1,5.1,34.882a1.115,1.115,0,0,0-1.174.267A5.035,5.035,0,0,1,7.87,37.123c1.121,1.334,2.532,3.959,6.173,4.024s7.021-2.6,7.021-2.6c-1.4,1.191-1.093,4.179-1.295,5.627a6.573,6.573,0,0,1-.707,2.29,1.285,1.285,0,0,0,.606-.505,2.679,2.679,0,0,1-.387,1.717,1.288,1.288,0,0,0,.64-.572,4.019,4.019,0,0,1-.286,1.6.958.958,0,0,0,.589-.589,3.707,3.707,0,0,1-.371,2.1,1.53,1.53,0,0,0,.556-.135,3.857,3.857,0,0,1-.791,1.549.99.99,0,0,0,.707-.236c-.067,1.4-1.347,3.03-2.037,3.754a2.551,2.551,0,0,0-.791,2.424c.067,1.313-.034,9.191.051,9.36S19.365,67,19.365,67a1.239,1.239,0,0,0,1.212.08,1.272,1.272,0,0,0,1.3-.114,1.672,1.672,0,0,0,1.212,0c.2-.152-.034-.589-.034-.589l1.683-.084a.875.875,0,0,0,1.212-.017c.741.572,1.162-.034,1.162-.034.3.2.909.253,1.044-.017a4.147,4.147,0,0,0-.657-1.936c-.253-.354-1.886-.253-2.1-.354s-.32-1.162-.387-2.879-.236-2.172.976-3.636a34.849,34.849,0,0,1,3.165-3.182.972.972,0,0,0,.64.556,1.573,1.573,0,0,1-.051-.909,1.385,1.385,0,0,0,.909.3,2.492,2.492,0,0,1-.152-1.2.844.844,0,0,0,.455.488s.034-.471.1-1.566.993-4.074,1.431-4.175,2.946,2.374,7.39,3.619a13.139,13.139,0,0,0,7.811-.1c.842,1.364,1.076,5.03,1.174,5.91s-.156,3.286-.176,4.01a45.361,45.361,0,0,0,1.105,5.008c.078.274,1.77.029,1.77.029.939.333,1.261.059,1.261.059a1.352,1.352,0,0,0,1.34-.108,1.619,1.619,0,0,0,1.369.069c.127-.147-.186-1.086-.186-1.086l1.721-.078a1.033,1.033,0,0,0,1.193.035,1.033,1.033,0,0,0,1.144-.035c.7.215.929-.6.665-1.281a6.02,6.02,0,0,0-1.105-1.653c-.264-.293-1.716-.071-2.086-.071s-.606-1.313-.841-1.885-.168-1.212.909-4.949,1.616-5.118,3.5-6.969,2.525-4.747,2.795-6.532a20.977,20.977,0,0,1,.983-3.672c.138.3.759.286.759.286-.542-.414-.138-1.429-.138-1.429a.8.8,0,0,0,.5.266c-.433-.512.029-1.636.029-1.636a1.6,1.6,0,0,1,.247.542,2.139,2.139,0,0,0,.246-1.478,3.432,3.432,0,0,1,.276,1.025,2.564,2.564,0,0,0,.325-1.557,1.377,1.377,0,0,1,.3.581c.286-.975.068-1.327.068-1.327.32.107.507.587.507.587a9.423,9.423,0,0,0-.187-2.108A5.249,5.249,0,0,1,68.456,33.1a3.73,3.73,0,0,0,2.081,1.6,1.282,1.282,0,0,0,1.441-.614c.293-.347-.213-.8-.213-.8s.107-.24.24-.507-.374-.294-.881-.881a26.531,26.531,0,0,1-1.654-2.641c1.494.454,1.894,1.28,2.4,1.52a8.155,8.155,0,0,0,3.2.107,3.108,3.108,0,0,0,1.414-1.761c.107-.72-1.841-1.441-2.988-2.4M20.517,64.268c-.309-.135,0-5.4,0-5.4s1.606,5.339,1.625,5.571-1.315-.039-1.625-.174m32.47-1a22.682,22.682,0,0,1-.8-6.5,16.871,16.871,0,0,1,1.353-4.935s-.076,1.753-.133,3.391-.533,4.744-.59,5.411a10.5,10.5,0,0,0,.819,2.629c.019.114-.648,0-.648,0" transform="translate(0 -15.365)" fill="#fff"/>
</svg>
