<?xml version="1.0" encoding="UTF-8"?>
<svg id="Layer_2" data-name="Layer 2" xmlns="http://www.w3.org/2000/svg" xmlns:xlink="http://www.w3.org/1999/xlink" viewBox="0 0 344.7 344.7">
  <defs>
    <style>
      .cls-1 {
        clip-path: url(#clippath);
      }

      .cls-2 {
        fill: none;
      }

      .cls-2, .cls-3, .cls-4, .cls-5 {
        stroke-width: 0px;
      }

      .cls-3 {
        fill: #3f4f20;
      }

      .cls-4 {
        fill: #d2e6a1;
      }

      .cls-5 {
        fill: #fff;
      }
    </style>
    <clipPath id="clippath">
      <rect class="cls-2" x="144.05" y="103.72" width="74.17" height="115.45" transform="translate(-13.36 16.37) rotate(-4.99)"/>
    </clipPath>
  </defs>
  <g id="Layer_1-2" data-name="Layer 1">
    <g>
      <path id="Path_281" data-name="Path 281" class="cls-4" d="M172.35,0c95.19,0,172.35,77.16,172.35,172.35s-77.16,172.35-172.35,172.35S0,267.53,0,172.35h0C0,77.16,77.16,0,172.35,0Z"/>
      <path class="cls-3" d="M263.7,302.88c2.29-9.54,2.66-19.44,1.1-29.13-.44-2.72-1.03-5.42-1.79-8.07-.35-1.22-.73-2.43-1.15-3.62-.07-1.26-.14-2.52-.24-3.78-.17-2.09-.4-4.17-.63-6.25-.24-2.12-.46-4.23-.72-6.34-.19-1.97-.66-3.91-1.4-5.75-.85-1.74-1.54-3.56-2.05-5.43-.43-1.97-.71-3.97-1.1-5.95-.77-3.97-1.69-7.9-2.77-11.8-.61-2.21-1.27-4.41-1.98-6.6-.68-2.1-1.29-4.41-2.72-6.13-.09-.11-.22-.18-.35-.19-.17-.43-.34-.85-.51-1.29-.97-2.53-1.87-5.09-2.64-7.68-1.52-5.23-2.35-10.64-2.49-16.08-.18-5.67-.28-11.35-.17-17.02.16-2.79.16-5.59,0-8.39-.27-2.44-.82-4.84-1.65-7.15-.88-2.59-1.96-5.12-2.77-7.73-.33-1.07-.58-2.17-.76-3.28.29-.14.5-.39.58-.7.59-1.84.91-3.79,1.35-5.67.43-1.88.86-3.79,1.3-5.68.42-1.84.86-3.68,1.2-5.54.31-1.84.52-3.7.63-5.56.17-1.63.87-3.16,2-4.35,1.25-1.5,2.49-3,3.74-4.5,2.11-2.54,4.54-5.15,4.79-8.61-.01-2.14-.36-4.26-1.03-6.29-.48-1.99-1.08-3.95-1.81-5.87.87-4.62-.79-9.41-2.23-13.84-1.92-5.93-3.47-11.98-4.63-18.11-1.17-6.16-1.96-12.39-2.37-18.65-.2-3.11-.29-6.23-.28-9.35,0-1.28-.1-2.77-1.58-3.16-.13-.04-.26-.05-.4-.06h-.29c-1.02.05-2.01.72-2.83,1.24-4.64,3.14-8.68,7.06-11.97,11.6-3.62,4.91-6.94,10.04-9.92,15.36-3.14,5.35-6.1,10.81-9.27,16.14-1.68,2.82-3.24,5.71-4.82,8.59-.77,1.4-1.53,2.82-2.34,4.2-.53,1.11-1.38,2.03-2.44,2.65-1.28.44-2.64.56-3.98.33-1.58-.12-3.15-.25-4.73-.34-3.21-.18-6.42-.26-9.64-.21-6.41.08-12.81.62-19.14,1.61-.98.16-1.96.35-2.93.54.03-.22.07-.45.1-.67.03-.13.01-.26-.05-.38-.14-.23-.44-.31-.67-.18,0,0,0,0,0,0-.11.07-.19.17-.23.3l-.11.44-.02-.2c0-.15-.04-.3-.1-.43-.04-.07-.07-.15-.11-.22-.13-.22-.42-.29-.64-.16-.1.06-.17.16-.21.27-.02.08-.04.15-.06.23-.03.11-.03.23-.02.34l.06.48.06.44c-1.08-1.57-2.16-3.13-3.29-4.66-1.24-1.79-2.73-3.39-4.42-4.76-1.68-1.29-3.62-2.12-4.84-3.93-1.19-1.77-2.19-3.66-3.38-5.44-2.4-3.6-5.1-7-8.07-10.15-2.94-3.26-6.25-6.17-9.85-8.69-3.42-2.28-8.15-4.12-12.14-2.16-2.01.98-2.59,3.03-2.79,5.09-.22,2.38-.29,4.76-.23,7.15.22,9.73,2.46,19.29,5.08,28.61.66,2.33,1.34,4.66,2.03,6.98.59,2.21,1.34,4.36,2.25,6.46,1.07,1.93,2.3,3.76,3.68,5.49,1.09,1.58,2.1,3.23,3.01,4.92-.26.06-.43.31-.38.58.29,1.33.71,2.63,1.25,3.88.13.36.26.73.39,1.1.01.41.07.82.09,1.18.06.96.09,1.92.08,2.88-.01,1.46-.11,2.91-.1,4.37-2.41,4.05-4.72,8.17-6.94,12.34-.73,1.26-1.28,2.62-1.62,4.04-.27,1.5-.23,3.05.11,4.54.68,2.93,1.71,5.77,3.06,8.46.69,1.47,1.46,2.91,2.3,4.3.42.7.85,1.39,1.31,2.06.48.7.88,1.52,1.79,1.66h.07c-1.19.99-2.25,2.13-3.14,3.4-1.23,1.86-1.49,4.19-.71,6.28.59,1.93,1.35,3.8,2.27,5.59.5.96,1.1,1.87,1.77,2.71.56.7,1.37,1.77,2.35,1.83.04.12.09.25.12.37.21.65.37,1.31.52,1.98.3,1.39.52,2.79.73,4.19.07,1.38.41,2.73,1,3.97.5.95,1.52,1.5,2.58,1.39,1.63.6,2.25,2.73,2.81,4.18.73,1.89,1.76,3.53,3.82,4.12,1.51.36,3.06.6,4.61.7-.05.04-.09.09-.12.14-1.05,1.72-1.87,3.58-2.85,5.34-.98,1.77-2.06,3.48-3.22,5.14-2.36,3.31-5,6.41-7.89,9.27-2.9,2.88-5.98,5.57-9.22,8.05-3.37,2.6-6.93,4.95-10.34,7.49-1.97,1.47-3.84,3.03-5.66,4.67-1.66,1.41-3.12,3.04-4.34,4.85-.99.97-1.95,1.97-2.9,2.98-2.2,2.34-4.32,4.75-6.37,7.22-4.14,5.04-7.99,10.31-11.54,15.78-3.63,5.57-6.67,11.6-10.94,16.72-3.02,3.62-6.45,6.87-9.71,10.27,30.87,29.18,72.52,47.07,118.35,47.07,30.37,0,58.91-7.87,83.69-21.66.94-1.63,1.87-3.26,2.7-4.95,2.15-4.38,3.82-8.99,4.96-13.74Z"/>
      <g id="Group_73" data-name="Group 73">
        <g class="cls-1">
          <g id="Group_42" data-name="Group 42">
            <path id="Path_267" data-name="Path 267" class="cls-5" d="M180.3,103.97c5,.11,9.95,1.07,14.63,2.83,4.21,1.59,8.06,3.99,11.34,7.07,3.17,3.03,5.67,6.7,7.32,10.76,1.77,4.39,2.65,9.1,2.59,13.83.06,3.36-.55,6.7-1.8,9.83-1.14,2.73-2.64,5.3-4.47,7.63-1.72,2.18-3.65,4.19-5.76,5.99-2.06,1.74-3.98,3.34-5.77,4.79-1.6,1.28-3.09,2.68-4.46,4.2-1.1,1.12-1.74,2.61-1.79,4.17v4.85c.07,1.04-.71,1.95-1.75,2.03-.02,0-.04,0-.06,0l-20.4-.68c-1.07-.13-1.86-1.07-1.79-2.15v-9.55c0-1.93.47-3.83,1.36-5.54.94-1.79,2.08-3.46,3.4-4.99,1.37-1.6,2.84-3.17,4.4-4.72,1.55-1.54,3.01-3.15,4.39-4.84,1.33-1.62,2.47-3.39,3.4-5.27.91-1.9,1.37-3.99,1.35-6.1,0-1.46-.2-2.92-.61-4.32-.38-1.33-.99-2.58-1.81-3.69-.79-1.05-1.78-1.94-2.91-2.61-1.19-.69-2.53-1.06-3.91-1.08-1.62-.13-3.25.23-4.66,1.04-1.18.74-2.14,1.78-2.78,3.02-.7,1.36-1.15,2.83-1.35,4.34-.23,1.66-.35,3.33-.35,5.01,0,.75,0,1.48,0,2.19v.02c.11,1.06-.67,2-1.73,2.1-.02,0-.05,0-.07,0l-22.29-.73c-1-.11-1.76-.93-1.79-1.94l-.1-1.2c-.09-.99-.14-2.01-.13-3.07-.08-4.91.91-9.77,2.9-14.25,1.85-4.09,4.58-7.71,8-10.62,3.56-2.97,7.69-5.18,12.14-6.5,4.97-1.48,10.15-2.11,15.33-1.89"/>
            <path id="Path_268" data-name="Path 268" class="cls-5" d="M190.61,218.56l-20.66-.68c-1.07-.13-1.86-1.07-1.79-2.15l.02-22.14c-.08-1.04.7-1.95,1.74-2.03.02,0,.04,0,.06,0l20.66.68c1.07.13,1.86,1.07,1.79,2.15l-.02,22.14c.08,1.04-.7,1.95-1.74,2.03-.02,0-.04,0-.06,0"/>
          </g>
        </g>
      </g>
    </g>
  </g>
</svg>